<?xml version="1.0" encoding="iso-8859-1"?>
<!-- Generator: Adobe Illustrator 19.1.0, SVG Export Plug-In . SVG Version: 6.00 Build 0)  -->
<svg version="1.1" id="Capa_1" xmlns="http://www.w3.org/2000/svg" xmlns:xlink="http://www.w3.org/1999/xlink" x="0px" y="0px" fill="#fff"
	 viewBox="0 0 82.59 82.59" style="enable-background:new 0 0 82.59 82.59;" xml:space="preserve">
<path d="M13.772,82.59c-0.399,0-0.782-0.041-1.064-0.324c-0.286-0.287-0.444-0.62-0.436-1.025c0.004-0.24,0.443-24.12,0.443-34.637
	c0-10.507-1.171-44.578-1.183-44.921c-0.014-0.406,0.138-0.795,0.42-1.087c0.283-0.293,0.672-0.454,1.079-0.454l0,0
	c16.06-0.011,21.75-0.053,25.918-0.096C41.534,0.021,43.623,0,47.225,0c5.062,0,6.932,2.035,12.484,8.074
	c1.28,1.393,2.778,3.022,4.583,4.922c5.599,5.897,7.482,9.513,6.296,12.091c-1.378,2.994-6.069,2.753-10.602,2.521
	c-0.785-0.04-1.552-0.08-2.268-0.099c-5.65-0.137-10.439,0.306-10.487,0.31c-0.47,0.044-0.929-0.133-1.247-0.479
	c-0.318-0.346-0.455-0.821-0.371-1.283c0.004-0.021,0.384-2.157,0.384-5.584c0-3.566-0.269-12.663-0.271-12.754
	c-0.024-0.828,0.627-1.519,1.455-1.544c0.835-0.044,1.519,0.627,1.544,1.454c0.011,0.376,0.272,9.233,0.272,12.844
	c0,1.745-0.091,3.179-0.19,4.219c1.959-0.125,5.268-0.274,8.988-0.18c0.74,0.018,1.533,0.059,2.344,0.101
	c2.514,0.13,7.196,0.368,7.723-0.779c0.086-0.188,0.658-2.026-5.746-8.771c-1.817-1.914-3.326-3.556-4.615-4.958
	c-5.601-6.093-6.634-7.103-10.275-7.103c-3.589,0-5.67,0.021-8.244,0.047c-4.037,0.041-9.519,0.097-24.397,0.098
	c0.23,6.828,1.132,34.228,1.132,43.487c0,8.981-0.319,27.682-0.416,33.175c4.597-0.057,18.414-0.218,27.622-0.218h25.12
	c-0.062-5.838-0.28-26.863-0.28-33.931c0-8.063-0.592-12.583-0.598-12.628c-0.109-0.821,0.467-1.575,1.288-1.686
	c0.819-0.108,1.576,0.465,1.686,1.286c0.025,0.189,0.624,4.738,0.624,13.027c0,8.182,0.293,35.143,0.296,35.414
	c0.004,0.4-0.152,0.786-0.434,1.071c-0.282,0.285-0.665,0.445-1.066,0.445H42.922c-11.108,0-28.951,0-29.129,0
	C13.786,82.59,13.779,82.59,13.772,82.59z"/>
<g>
</g>
<g>
</g>
<g>
</g>
<g>
</g>
<g>
</g>
<g>
</g>
<g>
</g>
<g>
</g>
<g>
</g>
<g>
</g>
<g>
</g>
<g>
</g>
<g>
</g>
<g>
</g>
<g>
</g>
</svg>
