<?xml version="1.0" encoding="iso-8859-1"?>
<!-- Generator: Adobe Illustrator 19.1.0, SVG Export Plug-In . SVG Version: 6.00 Build 0)  -->
<svg version="1.1" id="Capa_1" xmlns="http://www.w3.org/2000/svg" xmlns:xlink="http://www.w3.org/1999/xlink" x="0px" y="0px" fill="#fff"
	 viewBox="0 0 94.986 94.986" style="enable-background:new 0 0 94.986 94.986;" xml:space="preserve">
<path d="M46.685,94.986c-4.335,0-8.939-2.137-10.481-4.864c-0.69-1.221-0.72-2.477-0.083-3.534c1.108-1.839,3.919-2.664,8.604-2.542
	c9.046,0.255,14.426-1.349,15.926-2.342c-0.834-0.423-3.206-1.221-9.454-1.476c-12.755-0.521-22.087-2.946-23.775-6.18
	c-0.461-0.883-0.425-1.859,0.099-2.681c2.02-3.168,11.573-3.421,19.233-3.068c15.489,0.705,20.773-1.247,21.659-2.156
	c-0.448-0.482-2.396-1.694-7.571-2.301c-4.463-0.523-7.74-2.945-9.479-7.004c-1.279-2.984-1.585-6.672-1.026-10.288
	c-1.992,0.089-4.29,0.122-6.302-0.018c0.023,0.411,0.036,0.822,0.039,1.23c0.053,8.764-4.153,14.831-10.716,15.458
	c-7.467,0.712-14.626-3.962-18.677-12.202c-4.8-9.763-5.582-26.316,8.008-40.84C36.441-4.519,57.492-1.679,70.315,8.452
	c11.523,9.105,19.909,27.389,5.62,48.956c-0.457,0.691-1.389,0.88-2.079,0.422c-0.69-0.457-0.879-1.388-0.422-2.078
	c13.15-19.849,6.05-36.232-4.979-44.945C56.681,1.502,37.408-1.157,24.879,12.227C12.334,25.635,12.995,40.79,17.372,49.695
	c3.487,7.093,9.508,11.123,15.7,10.539c5.951-0.568,8.035-6.807,8.001-12.454c-0.003-0.537-0.025-1.067-0.064-1.589
	c-6.613-1.057-10.421-3.86-11.86-6.52c-0.974-1.801-0.989-3.667-0.04-5.119c1.069-1.637,3.194-2.45,5.834-2.231
	c4.706,0.393,7.705,5.499,8.733,11.175c0.992,0.084,2.048,0.13,3.171,0.13c1.488,0,2.876-0.042,4.17-0.119
	c0.689-2.33,1.744-4.532,3.134-6.381c2.479-3.296,5.674-4.889,9.001-4.475c3.59,0.443,5.98,2.658,5.812,5.385
	c-0.217,3.522-4.528,7.25-15.546,8.3c-0.621,3.283-0.43,6.681,0.702,9.321c1.31,3.057,3.688,4.808,7.071,5.204
	c6.758,0.794,10.507,2.799,10.288,5.502c-0.428,5.258-15.76,5.348-24.862,4.932c-11.316-0.509-15.532,0.848-16.419,1.538
	c0.985,1.14,7.001,3.82,21.121,4.396c11.458,0.469,12.705,2.783,12.647,4.483c-0.148,4.3-11.635,5.548-19.324,5.33
	c-4.125-0.105-5.693,0.664-5.951,1.092c-0.076,0.127,0.062,0.399,0.125,0.511c0.771,1.365,4.018,3.34,7.869,3.34
	c6.953,0,8.625-1.736,8.64-1.754c0.477-0.678,1.384-0.804,2.061-0.326c0.678,0.477,0.812,1.449,0.335,2.127
	C57.375,92.526,55.214,94.986,46.685,94.986z M62.12,35.588c-2.506,0-4.394,1.778-5.57,3.342c-0.943,1.255-1.707,2.721-2.277,4.287
	c8.221-0.996,11.59-3.592,11.699-5.363c0.065-1.069-1.245-1.984-3.187-2.225C62.559,35.601,62.337,35.588,62.12,35.588z
	 M34.1,35.287c-1.192,0-2.098,0.325-2.478,0.907c-0.328,0.501-0.267,1.248,0.167,2.05c0.984,1.819,3.797,3.861,8.755,4.824
	c-0.988-4.352-3.245-7.539-5.848-7.756C34.49,35.295,34.291,35.287,34.1,35.287z"/>
<g>
</g>
<g>
</g>
<g>
</g>
<g>
</g>
<g>
</g>
<g>
</g>
<g>
</g>
<g>
</g>
<g>
</g>
<g>
</g>
<g>
</g>
<g>
</g>
<g>
</g>
<g>
</g>
<g>
</g>
</svg>
