<?xml version="1.0" encoding="utf-8"?>
<!-- Generator: Adobe Illustrator 16.0.0, SVG Export Plug-In . SVG Version: 6.00 Build 0)  -->
<!DOCTYPE svg PUBLIC "-//W3C//DTD SVG 1.1//EN" "http://www.w3.org/Graphics/SVG/1.1/DTD/svg11.dtd">
<svg version="1.1" id="Layer_1" xmlns="http://www.w3.org/2000/svg" xmlns:xlink="http://www.w3.org/1999/xlink" x="0px" y="0px"
	 width="143.519px" height="144px" viewBox="0 0 143.519 144" enable-background="new 0 0 143.519 144" xml:space="preserve">
<path fill="#58595B" d="M142.238,65.397H78.39V40.383h4.045v20.969h59.306c-5.203-33.898-34.491-59.86-69.845-59.86
	c-2.189,0-4.354,0.105-6.495,0.3v63.805H40.389v-4.044h20.967V2.275C27.328,7.363,1.231,36.712,1.231,72.158
	c0,1.909,0.077,3.799,0.226,5.67H65.4v25.012h-4.044V81.871H1.897c4.735,34.434,34.267,60.953,69.998,60.953
	c2.192,0,4.356-0.105,6.495-0.301V78.719h25.014v4.043H82.435v59.279c34.027-5.086,60.127-34.439,60.127-69.883
	C142.562,69.877,142.449,67.624,142.238,65.397z"/>
</svg>
