<?xml version="1.0" encoding="iso-8859-1"?>
<!-- Generator: Adobe Illustrator 19.1.0, SVG Export Plug-In . SVG Version: 6.00 Build 0)  -->
<svg version="1.1" id="Capa_1" xmlns="http://www.w3.org/2000/svg" xmlns:xlink="http://www.w3.org/1999/xlink" x="0px" y="0px" fill="#fff"
	 viewBox="0 0 92.831 92.831" style="enable-background:new 0 0 92.831 92.831;" xml:space="preserve">
<path d="M89.846,88.757c-2.104,0-6.063-0.399-11.91-2.598c-5.611-2.111-8.563-4.809-9.862-6.292
	c-6.833,3.11-42.975,17.949-60.254-7.261c-14.157-20.655-7.218-43.186,5.941-56.351C27.156,2.854,44.699,0.275,58.45,9.692
	c4.572,3.13,7.345,7.402,7.911,11.956c3.856,0.801,10.246,3.937,12.79,15.675c2.166,10.002,0.214,19.356-5.358,25.664
	c-4.285,4.851-10.303,7.315-16.519,6.755c-2.98-0.267-5.227-1.532-6.678-3.763c-0.912-1.402-1.411-3.076-1.639-4.824
	c-1.888,3.786-4.25,7.111-6.871,7.657c-1.153,0.238-2.879,0.096-4.556-1.952c-2.646-3.234-2.704-8.06-2.751-11.938
	c-0.021-1.817-0.059-4.858-0.647-5.212c-0.102-0.061-0.68-0.086-1.97,0.573c-4.793,2.453-7.665,14.532-8.366,18.98
	c-0.124,0.792-0.847,1.348-1.644,1.258c-0.796-0.087-1.383-0.783-1.334-1.583c0.037-0.609,0.582-9.239,2.1-19.427
	c-3.319,0.654-5.642,0.508-5.711,0.505c-0.826-0.062-1.445-0.782-1.383-1.608c0.062-0.824,0.788-1.442,1.605-1.384
	c0.272,0.021,2.697,0.158,5.974-0.605c1.071-6.508,2.539-13.369,4.516-19.018c3.463-9.894,9.873-14.44,14.075-13.12
	c1.429,0.448,5.855,2.758,2.824,13.626c-3.737,13.388-12.158,18.699-18.724,20.791c-0.279,1.797-0.527,3.556-0.748,5.242
	c1.417-2.786,3.214-5.181,5.452-6.325c0.759-0.39,3.07-1.569,4.886-0.473c2.019,1.218,2.053,4.099,2.097,7.745
	c0.043,3.587,0.092,7.653,2.073,10.074c0.876,1.071,1.42,0.958,1.623,0.915c2.797-0.582,6.482-9.045,8.547-15.706
	c0.262-0.976,0.471-1.601,0.506-1.704c0.262-0.771,1.091-1.19,1.866-0.949c0.776,0.242,1.219,1.058,0.997,1.84
	c-0.111,0.396-0.287,0.999-0.519,1.751c-0.939,3.575-1.945,9.885,0.24,13.24c0.936,1.437,2.385,2.225,4.429,2.407
	c5.253,0.47,10.357-1.625,14.003-5.753c4.933-5.585,6.637-13.983,4.675-23.043c-2.041-9.417-6.682-12.338-9.814-13.213
	c-0.044,0.459-0.11,0.919-0.199,1.378c-0.807,4.156-3.351,7.39-6.331,8.047c-2.059,0.455-4.053-0.416-5.475-2.383
	c-1.311-1.816-1.362-3.977-0.141-5.93c1.647-2.632,5.254-4.341,9.024-4.469c-0.484-2.755-2.101-6.19-6.529-9.222
	c-15.191-10.4-31.513-3.154-40.873,6.211C3.601,30.665-2.89,51.675,10.295,70.911c17.566,25.626,57.15,5.95,57.548,5.749
	c0.702-0.358,1.56-0.109,1.964,0.566c0.015,0.023,2.259,3.52,9.185,6.124c3.428,1.29,6.118,1.905,8.077,2.188
	c-1.573-1.442-3.592-3.446-5.84-6.04c-5.253-6.064-5.605-10.142-5.628-10.586c-0.042-0.828,0.594-1.533,1.421-1.575
	c0.814-0.041,1.532,0.595,1.575,1.421c0.002,0.016,0.318,3.487,4.899,8.775c4.874,5.623,8.672,8.38,8.711,8.407
	c0.483,0.348,0.716,0.949,0.591,1.532c-0.124,0.582-0.582,1.036-1.165,1.156C91.568,88.642,90.973,88.757,89.846,88.757z
	 M40.433,17.045c-2.544,0-6.992,3.651-9.684,11.344c-1.753,5.01-3.103,11.104-4.124,17.038c5.561-2.143,12.159-7.071,15.301-18.329
	c1.717-6.158,0.819-9.438-0.834-9.957C40.891,17.077,40.671,17.045,40.433,17.045z M63.422,24.375
	c-3.022,0.071-5.609,1.46-6.619,3.073c-0.573,0.916-0.563,1.76,0.03,2.581c1.082,1.498,2.071,1.281,2.397,1.21
	c1.482-0.327,3.399-2.432,4.031-5.688C63.324,25.225,63.384,24.828,63.422,24.375z"/>
<g>
</g>
<g>
</g>
<g>
</g>
<g>
</g>
<g>
</g>
<g>
</g>
<g>
</g>
<g>
</g>
<g>
</g>
<g>
</g>
<g>
</g>
<g>
</g>
<g>
</g>
<g>
</g>
<g>
</g>
</svg>
