<?xml version="1.0" encoding="iso-8859-1"?>
<!-- Generator: Adobe Illustrator 19.1.0, SVG Export Plug-In . SVG Version: 6.00 Build 0)  -->
<svg version="1.1" id="Capa_1" xmlns="http://www.w3.org/2000/svg" xmlns:xlink="http://www.w3.org/1999/xlink" x="0px" y="0px" fill="#fff"
	 viewBox="0 0 80.028 80.028" style="enable-background:new 0 0 80.028 80.028;" xml:space="preserve">
<path d="M3.319,80.028c-0.759,0-1.41-0.572-1.49-1.344c-0.031-0.303-2.631-29.27,31.441-37.487
	c-12.342-5.462-16.372-14.414-15.65-22.04C18.636,8.415,28.499,0,40.073,0c11.791,0,19.718,9.906,20.571,19.483
	c0.722,8.108-3.34,17.561-16.158,22.09c0.359,0.075,0.722,0.147,1.091,0.218C69.423,46.346,77.853,75.631,78.2,76.875
	c0.222,0.798-0.244,1.625-1.042,1.848c-0.795,0.227-1.624-0.242-1.848-1.041c-0.081-0.286-8.29-28.74-30.296-32.944
	c-2.308-0.44-4.446-0.969-6.423-1.573c-0.28,0.056-0.565,0.109-0.853,0.161C2.336,49.681,4.695,77.208,4.814,78.376
	c0.083,0.823-0.517,1.56-1.34,1.645C3.422,80.025,3.37,80.028,3.319,80.028z M40.073,3c-11.212,0-18.702,8.358-19.467,16.44
	c-0.689,7.291,3.908,16.035,18.144,20.629c14.949-3.225,19.601-12.515,18.906-20.319C56.923,11.516,50.146,3,40.073,3z"/>
<g>
</g>
<g>
</g>
<g>
</g>
<g>
</g>
<g>
</g>
<g>
</g>
<g>
</g>
<g>
</g>
<g>
</g>
<g>
</g>
<g>
</g>
<g>
</g>
<g>
</g>
<g>
</g>
<g>
</g>
</svg>
