<?xml version="1.0" encoding="iso-8859-1"?>
<!-- Generator: Adobe Illustrator 19.1.0, SVG Export Plug-In . SVG Version: 6.00 Build 0)  -->
<svg version="1.1" id="Capa_1" xmlns="http://www.w3.org/2000/svg" xmlns:xlink="http://www.w3.org/1999/xlink" x="0px" y="0px" fill="#fff"
	 viewBox="0 0 120.384 120.384" style="enable-background:new 0 0 120.384 120.384;" xml:space="preserve">
<path d="M60.67,101.192c-2.063,0-4.108-0.567-5.55-1.633c-3.23-0.719-6.653-2.34-9.144-4.192c-0.871-0.647-1.617-1.312-2.236-1.986
	c-4.207-1.083-8.408-3.922-10.88-7.19c-0.954-0.448-1.936-1.04-2.929-1.773c-3.331-2.461-6.308-6.081-7.618-9.557
	c-0.153-0.112-0.306-0.229-0.459-0.351c-3.646-2.885-7.624-8.689-5.608-12.086c0.364-0.613,0.754-1.331,1.198-2.146
	c1.973-3.619,4.953-9.09,11.001-15.76c1.642-1.811,3.172-3.399,4.521-4.8c2.922-3.034,5.445-5.653,5.399-6.882
	c-0.003-0.082-0.01-0.276-0.37-0.598c-0.841-0.753-1.709-1.556-2.585-2.367c-3.365-3.116-7.983-7.393-10.046-7.197
	c-0.205,0.017-0.383,0.085-0.583,0.352c-1.047,1.393-3.025,3.778-5.314,6.541C14.274,35.833,3.632,48.675,3.025,51.814
	c3.545,3.009,10.776,7.542,10.851,7.589c0.703,0.439,0.916,1.364,0.476,2.067c-0.439,0.7-1.366,0.916-2.067,0.475
	c-0.324-0.202-7.964-4.992-11.556-8.151c-2.436-2.14,0.788-7.271,16.427-26.142c2.266-2.733,4.222-5.095,5.227-6.43
	c0.682-0.907,1.62-1.44,2.712-1.537c3.409-0.305,7.749,3.722,12.353,7.984c0.863,0.8,1.718,1.591,2.547,2.332
	c0.869,0.777,1.329,1.693,1.367,2.723c0.093,2.502-2.289,4.976-6.237,9.074c-1.334,1.386-2.847,2.956-4.459,4.734
	c-5.808,6.404-8.685,11.686-10.589,15.18c-0.463,0.851-0.873,1.601-1.252,2.241c-0.536,0.901,0.588,3.738,2.871,6.294
	c0.091-0.543,0.254-1.062,0.497-1.551c2.344-4.736,5.914-6.286,8.49-6.157c2.21,0.11,4.038,1.394,4.772,3.349
	c0.501,1.335,1.146,4.943-3.676,9.602c-1.342,1.296-3.064,1.769-4.965,1.446c1.022,1.484,2.344,2.964,3.854,4.239
	c-0.177-1.733,0.308-3.344,1.427-4.659c4.701-5.519,8.836-8.068,11.947-7.385c1.501,0.332,2.616,1.44,3.06,3.042
	c0.85,3.067-0.697,8.438-6.068,13.522c-0.848,0.802-1.867,1.288-3.009,1.463c1.09,0.862,2.311,1.631,3.574,2.239
	c-0.191-1.236,0.087-2.43,0.858-3.515c4.196-5.9,7.729-6.421,9.453-6.213c1.77,0.217,3.172,1.329,3.848,3.05
	c0.975,2.483,0.217,5.645-1.979,8.249c-1.248,1.48-2.938,2.406-4.93,2.735c1.334,0.854,2.8,1.571,4.244,2.113
	c0.006-1.03,0.376-2.115,1.113-3.189c2.734-3.993,5.24-4.643,6.851-4.488c1.572,0.153,2.915,1.184,3.591,2.755
	c0.88,2.046,0.54,4.537-0.876,6.619c0.039-0.019,0.077-0.04,0.115-0.061c1.754-0.961,2.763-2.017,2.917-3.053
	c0.179-1.206-0.819-2.241-0.829-2.252c-0.575-0.587-0.575-1.533,0.005-2.114c0.581-0.583,1.516-0.593,2.104-0.019
	c0.139,0.135,3.509,3.338,6.104,1.242c0.73-0.588,1.093-1.233,1.143-2.033c0.108-1.736-1.332-3.816-2.139-4.767
	c-0.225-0.236-0.354-0.394-0.378-0.422c-0.508-0.623-0.434-1.536,0.167-2.069c0.602-0.535,1.517-0.499,2.075,0.078
	c0.057,0.06,0.186,0.195,0.36,0.396c0.648,0.671,2.371,2.237,4.437,2.411c1.309,0.112,2.537-0.349,3.763-1.406
	c0.927-0.8,1.378-1.676,1.377-2.677c-0.001-2.263-2.248-4.8-3.333-5.798c-0.129-0.112-0.21-0.187-0.237-0.212
	c-0.599-0.555-0.644-1.487-0.1-2.097c0.543-0.611,1.474-0.676,2.095-0.143c0.023,0.019,0.106,0.091,0.236,0.211
	c1.545,1.35,5.652,4.191,7.754,2.451c0.942-0.779,1.405-1.712,1.457-2.934c0.292-6.935-12.64-19.611-20.366-27.185
	c-1.589-1.558-3.092-3.031-4.317-4.286c-4.524,3.055-8.479,6.123-11.679,10.604c-3.482,4.875-9.421,8.798-13.334,6.928
	c-2.033-0.973-4.012-3.72-1.9-11.283c1.841-6.591,6.846-11.67,13.061-13.256c4.988-1.267,10.032-0.102,14.147,3.21
	c0.532-0.35,1.066-0.7,1.604-1.051c2.312-1.512,4.704-3.075,7.155-4.851c1.309-0.948,2.627-1.915,3.922-2.866
	c10.778-7.914,14.597-10.527,16.419-8.208c10.661,13.617,23.27,30.479,22.797,33.481c-0.079,0.505-0.346,0.934-0.751,1.208
	c-0.33,0.222-1.083,0.799-1.957,1.468c-7.174,5.493-11.505,8.391-13.806,8.021c-0.623-0.101-1.15-0.431-1.483-0.927
	c-1.413-2.09-18.677-26.678-18.852-26.926c-0.476-0.679-0.312-1.614,0.366-2.09c0.679-0.477,1.614-0.311,2.089,0.365
	c0.682,0.971,16.041,22.846,18.615,26.582c1.438-0.303,5.216-2.79,11.247-7.408c0.558-0.428,1.028-0.788,1.405-1.069
	c-1.418-3.498-11.766-17.722-21.711-30.445c-1.956,0.548-8.07,5.037-12.603,8.365c-1.301,0.955-2.624,1.926-3.938,2.878
	c-2.51,1.817-4.932,3.4-7.273,4.932c-0.333,0.218-0.665,0.434-0.993,0.649c1.126,1.142,2.465,2.453,3.871,3.832
	c9.121,8.94,21.612,21.185,21.264,29.453c-0.087,2.074-0.942,3.797-2.542,5.12c-1.753,1.451-3.825,1.466-5.743,0.905
	c0.257,0.755,0.415,1.548,0.416,2.358c0.004,1.878-0.832,3.593-2.418,4.96c-1.85,1.596-3.867,2.309-5.999,2.122
	c-0.484-0.042-0.951-0.131-1.397-0.254c0.127,0.592,0.186,1.204,0.147,1.825c-0.102,1.63-0.881,3.076-2.256,4.184
	c-2.046,1.648-4.319,1.605-6.262,0.929c-0.007,0.09-0.018,0.181-0.03,0.271c-0.284,2.048-1.782,3.827-4.45,5.289
	C63.958,100.835,62.308,101.191,60.67,101.192z M56.491,96.776c2.147,0.383,3.907,0.217,4.591-0.661
	c1.21-1.556,1.193-3.145,0.81-4.032c-0.142-0.33-0.476-0.892-1.126-0.955c-0.417-0.04-1.944,0.069-4.086,3.197
	C55.663,95.809,56.245,96.504,56.491,96.776z M45.385,90.674c0.008,0.001,0.016,0.003,0.023,0.004
	c1.86,0.334,4.421,0.322,6.076-1.641c1.777-2.108,1.908-4.129,1.48-5.219c-0.187-0.477-0.585-1.066-1.42-1.169
	c-1.38-0.158-3.852,1.049-6.643,4.974C44.225,88.576,44.652,89.692,45.385,90.674z M34.818,83.771
	c1.449,0.571,3.052,0.788,4.153-0.253c4.199-3.975,5.833-8.398,5.239-10.543c-0.192-0.692-0.537-0.851-0.816-0.914
	c-1.384-0.305-4.576,1.187-9.016,6.401c-0.82,0.962-0.969,2.126-0.458,3.557C34.129,82.6,34.434,83.189,34.818,83.771z
	 M24.839,72.951c1.424,0.89,3.467,1.723,4.856,0.382c2.458-2.375,3.562-4.764,2.951-6.39c-0.311-0.83-1.102-1.355-2.114-1.406
	c-1.603-0.089-3.951,1.056-5.651,4.491C24.51,70.78,24.52,71.798,24.839,72.951z M58.33,36.261c-1.075,0-2.166,0.138-3.262,0.417
	c-5.179,1.32-9.36,5.595-10.913,11.155c-1.385,4.959-0.75,7.266,0.306,7.771c1.839,0.885,6.434-1.533,9.598-5.966
	c3.301-4.621,7.376-7.874,11.783-10.896C63.544,37.104,60.987,36.261,58.33,36.261z"/>
<g>
</g>
<g>
</g>
<g>
</g>
<g>
</g>
<g>
</g>
<g>
</g>
<g>
</g>
<g>
</g>
<g>
</g>
<g>
</g>
<g>
</g>
<g>
</g>
<g>
</g>
<g>
</g>
<g>
</g>
</svg>
