<?xml version="1.0" encoding="utf-8"?>
<!-- Generator: Adobe Illustrator 16.0.0, SVG Export Plug-In . SVG Version: 6.00 Build 0)  -->
<!DOCTYPE svg PUBLIC "-//W3C//DTD SVG 1.1//EN" "http://www.w3.org/Graphics/SVG/1.1/DTD/svg11.dtd">
<svg version="1.1" id="Layer_1" xmlns="http://www.w3.org/2000/svg" xmlns:xlink="http://www.w3.org/1999/xlink" x="0px" y="0px"
	 width="309px" height="238.773px" viewBox="0 0 309 238.773" enable-background="new 0 0 309 238.773" xml:space="preserve">
<rect x="-4" y="-2" fill="#D6D6D6" stroke="#000000" stroke-miterlimit="10" width="317" height="243"/>
<g>
	<path fill="#58595B" d="M81.62,188.465v12.031c0,0.273-0.231,0.504-0.504,0.504c-0.273,0-0.504-0.23-0.504-0.504v-13.479
		c-0.063-0.21,0-0.42,0.189-0.567c0.231-0.147,0.567-0.105,0.714,0.126l8.902,12.346v-11.968c0-0.272,0.231-0.504,0.504-0.504
		c0.294,0,0.525,0.231,0.525,0.504v13.542c0,0.273-0.231,0.504-0.525,0.504c-0.168,0-0.294-0.062-0.399-0.188
		c-0.021-0.021-0.063-0.042-0.084-0.084L81.62,188.465z"/>
	<path fill="#58595B" d="M102.136,186.093c3.926,0,7.013,3.339,7.034,7.454c-0.021,4.115-3.107,7.454-7.034,7.454
		c-3.968,0-7.076-3.338-7.097-7.454C95.06,189.431,98.167,186.093,102.136,186.093z M102.136,199.971
		c3.233,0,5.963-2.834,5.984-6.426c-0.021-3.632-2.75-6.403-5.984-6.403c-3.338,0-6.068,2.771-6.068,6.403
		C96.068,197.137,98.797,199.971,102.136,199.971z"/>
	<path fill="#58595B" d="M119.986,186.807c0-0.273,0.231-0.505,0.504-0.505c0.294,0,0.525,0.231,0.525,0.505v13.688
		c0,0.273-0.231,0.504-0.525,0.504c-0.273,0-0.504-0.23-0.504-0.504V186.807z"/>
	<path fill="#58595B" d="M137.583,188.402l-4.703,6.53c-0.105,0.168-0.273,0.23-0.42,0.23h-0.042c-0.189,0-0.336-0.062-0.441-0.23
		l-4.703-6.51v12.073c0,0.273-0.231,0.504-0.504,0.504c-0.294,0-0.525-0.23-0.525-0.504v-13.604c0-0.168,0.084-0.315,0.21-0.399
		c0-0.021,0.021-0.021,0.042-0.042c0.231-0.147,0.546-0.105,0.714,0.126l5.228,7.244l5.207-7.244
		c0.147-0.231,0.483-0.273,0.714-0.126c0.063,0.063,0.105,0.105,0.147,0.168c0.042,0.084,0.084,0.189,0.084,0.273v13.604
		c0,0.273-0.231,0.504-0.504,0.504c-0.294,0-0.504-0.23-0.504-0.504V188.402z"/>
	<path fill="#58595B" d="M150.645,197.2h-6.698l-1.302,3.464c-0.084,0.21-0.273,0.336-0.483,0.336c-0.042,0-0.126-0.021-0.189-0.021
		c-0.252-0.105-0.399-0.42-0.294-0.672l5.102-13.626c0.084-0.189,0.294-0.315,0.504-0.315c0.231,0,0.441,0.126,0.504,0.315
		l5.102,13.626c0.105,0.252-0.021,0.566-0.273,0.672c-0.084,0-0.126,0.021-0.189,0.021c-0.189,0-0.399-0.126-0.483-0.336
		L150.645,197.2z M144.325,196.171h5.942l-2.96-7.895L144.325,196.171z"/>
	<path fill="#58595B" d="M162.363,194.385c-0.295,0-0.525-0.21-0.525-0.504s0.23-0.524,0.525-0.524h4.535h0.062
		c0.252,0.021,0.462,0.252,0.462,0.524v5.039v0.084c-0.021,0.147-0.084,0.294-0.188,0.378c-1.303,1.029-2.939,1.617-4.745,1.617
		c-4.22-0.021-7.643-3.316-7.643-7.475c0-4.094,3.421-7.434,7.643-7.434c1.827,0,3.442,0.631,4.766,1.659
		c0.188,0.147,0.252,0.504,0.063,0.714c-0.168,0.21-0.483,0.252-0.735,0.084c-1.071-0.882-2.521-1.428-4.094-1.428
		c-3.675,0-6.614,2.876-6.614,6.404c0,3.569,2.939,6.446,6.614,6.446c1.428,0,2.792-0.463,3.884-1.261v-4.324L162.363,194.385
		L162.363,194.385z"/>
	<path fill="#58595B" d="M172.591,186.807c0-0.273,0.231-0.505,0.505-0.505h0.041h7.518c0.294,0,0.504,0.231,0.504,0.505
		c0,0.294-0.21,0.524-0.504,0.524h-7.034v5.816h6.151c0.273,0,0.504,0.23,0.504,0.524c0,0.273-0.23,0.504-0.504,0.504h-6.151v5.796
		h7.034c0.294,0,0.504,0.23,0.504,0.524c0,0.273-0.21,0.504-0.504,0.504h-7.496h-0.062h-0.043c-0.252-0.021-0.462-0.23-0.462-0.504
		V186.807z"/>
	<path fill="#58595B" d="M195.375,193.945l-4.934-6.74c-0.147-0.23-0.105-0.566,0.104-0.714c0.231-0.189,0.567-0.147,0.714,0.084
		l4.598,6.32l4.619-6.32c0.147-0.231,0.483-0.273,0.715-0.084c0.23,0.147,0.272,0.483,0.104,0.714l-4.913,6.698v6.593
		c0,0.273-0.21,0.504-0.504,0.504c-0.273,0-0.504-0.23-0.504-0.504V193.945z"/>
	<path fill="#58595B" d="M204.027,186.807c0-0.273,0.231-0.505,0.505-0.505h0.042h7.517c0.294,0,0.505,0.231,0.505,0.505
		c0,0.294-0.211,0.524-0.505,0.524h-7.034v5.816h6.152c0.273,0,0.504,0.23,0.504,0.524c0,0.273-0.23,0.504-0.504,0.504h-6.152v5.796
		h7.034c0.294,0,0.505,0.23,0.505,0.524c0,0.273-0.211,0.504-0.505,0.504h-7.495h-0.063h-0.042c-0.252-0.021-0.463-0.23-0.463-0.504
		V186.807L204.027,186.807z"/>
	<path fill="#58595B" d="M220.281,187.332h-4.43c-0.273,0-0.504-0.23-0.504-0.524c0-0.273,0.23-0.505,0.504-0.505h9.867
		c0.273,0,0.504,0.231,0.504,0.505c0,0.294-0.23,0.524-0.504,0.524h-4.43v13.165c0,0.273-0.23,0.504-0.504,0.504
		s-0.504-0.23-0.504-0.504V187.332z"/>
</g>
<g>
	<path fill="#58595B" d="M75.347,41.476v126.07H230.51V41.476H75.347z M220.812,157.848H85.045V51.174h135.768V157.848z
		 M182.021,75.418c0,8.034,6.513,14.546,14.547,14.546c8.033,0,14.546-6.513,14.546-14.546c0-8.034-6.513-14.547-14.546-14.547
		C188.534,60.871,182.021,67.384,182.021,75.418z M211.114,148.15H94.742l29.093-77.582l38.791,48.489l19.396-14.547L211.114,148.15
		z"/>
</g>
</svg>
