<?xml version="1.0" encoding="utf-8"?>
<!-- Generator: Adobe Illustrator 16.0.0, SVG Export Plug-In . SVG Version: 6.00 Build 0)  -->
<!DOCTYPE svg PUBLIC "-//W3C//DTD SVG 1.1//EN" "http://www.w3.org/Graphics/SVG/1.1/DTD/svg11.dtd">
<svg version="1.1" id="Layer_1" xmlns="http://www.w3.org/2000/svg" xmlns:xlink="http://www.w3.org/1999/xlink" x="0px" y="0px"
	 width="741px" height="528px" viewBox="0 0 741 528" enable-background="new 0 0 741 528" xml:space="preserve">
<rect fill="#BABABA" width="741" height="528"/>
<g>
	<circle fill="#F5F5F5" cx="370.5" cy="261.224" r="107.143"/>
	<g>
		<path fill="#DCDCDC" d="M438.953,223.757c-3.768-1.561-8.103-0.698-10.986,2.185l-19.205,19.207v-11.707
			c0-8.336-6.761-15.098-15.099-15.098h-82.74c-8.338,0-15.099,6.762-15.099,15.098v55.564c0,8.337,6.761,15.098,15.099,15.098
			h82.74c8.338,0,15.099-6.761,15.099-15.098v-11.707l19.205,19.207c1.93,1.929,4.507,2.954,7.131,2.954
			c1.298,0,2.608-0.253,3.855-0.769c3.766-1.561,6.223-5.236,6.223-9.313v-56.309C445.176,228.992,442.719,225.316,438.953,223.757z
			 M366.785,265.135l-20.579,15.812c-0.878,0.675-1.939,1.021-3.006,1.021c-0.742,0-1.487-0.167-2.18-0.508
			c-1.685-0.83-2.752-2.545-2.752-4.425v-31.621c0-1.88,1.067-3.595,2.752-4.424c1.686-0.831,3.695-0.633,5.185,0.513l20.579,15.811
			c1.216,0.934,1.928,2.379,1.928,3.911S368,264.201,366.785,265.135z"/>
		<g>
		</g>
		<g>
		</g>
		<g>
		</g>
		<g>
		</g>
		<g>
		</g>
		<g>
		</g>
		<g>
		</g>
		<g>
		</g>
		<g>
		</g>
		<g>
		</g>
		<g>
		</g>
		<g>
		</g>
		<g>
		</g>
		<g>
		</g>
		<g>
		</g>
	</g>
</g>
</svg>
